<svg width="512" height="512" viewBox="0 0 512 512" xmlns="http://www.w3.org/2000/svg">
  <defs>
    <linearGradient id="bg" x1="0%" y1="0%" x2="100%" y2="100%">
      <stop offset="0%" style="stop-color:#78350f;stop-opacity:1" />
      <stop offset="100%" style="stop-color:#451a03;stop-opacity:1" />
    </linearGradient>
  </defs>
  <rect width="512" height="512" fill="url(#bg)" rx="64"/>
  
  <!-- Chess board pattern -->
  <g opacity="0.2">
    <rect x="96" y="96" width="64" height="64" fill="#fbbf24"/>
    <rect x="224" y="96" width="64" height="64" fill="#fbbf24"/>
    <rect x="352" y="96" width="64" height="64" fill="#fbbf24"/>
    <rect x="160" y="160" width="64" height="64" fill="#fbbf24"/>
    <rect x="288" y="160" width="64" height="64" fill="#fbbf24"/>
    <rect x="96" y="224" width="64" height="64" fill="#fbbf24"/>
    <rect x="224" y="224" width="64" height="64" fill="#fbbf24"/>
    <rect x="352" y="224" width="64" height="64" fill="#fbbf24"/>
    <rect x="160" y="288" width="64" height="64" fill="#fbbf24"/>
    <rect x="288" y="288" width="64" height="64" fill="#fbbf24"/>
    <rect x="96" y="352" width="64" height="64" fill="#fbbf24"/>
    <rect x="224" y="352" width="64" height="64" fill="#fbbf24"/>
    <rect x="352" y="352" width="64" height="64" fill="#fbbf24"/>
  </g>
  
  <!-- King piece -->
  <g transform="translate(256, 256)">
    <path d="M -40 -60 L -40 -40 L -30 -40 L -30 -20 L -20 -20 L -20 -10 L -10 -10 L -10 40 L 10 40 L 10 -10 L 20 -10 L 20 -20 L 30 -20 L 30 -40 L 40 -40 L 40 -60 Z" 
          fill="#fbbf24" stroke="#92400e" stroke-width="2"/>
    <circle cx="0" cy="-50" r="8" fill="#fbbf24" stroke="#92400e" stroke-width="2"/>
    <path d="M -15 -70 L 0 -85 L 15 -70" fill="none" stroke="#fbbf24" stroke-width="4" stroke-linecap="round"/>
  </g>
  
  <!-- Text -->
  <text x="256" y="420" font-family="Arial, sans-serif" font-size="48" font-weight="bold" fill="#fbbf24" text-anchor="middle">♟️</text>
  <text x="256" y="460" font-family="Arial, sans-serif" font-size="24" font-weight="bold" fill="#fbbf24" text-anchor="middle">ÉCHECS</text>
</svg>
